<svg xmlns="http://www.w3.org/2000/svg" xmlns:xlink="http://www.w3.org/1999/xlink" fill="none" version="1.1" width="43.89892578125" height="45.099853515625" viewBox="0 0 43.89892578125 45.099853515625"><g style="mix-blend-mode:passthrough"><g><g style="mix-blend-mode:passthrough"><path d="M33.82763483886718,45.23259353637695L10.071334838867188,45.23259353637695L10.071334838867188,42.23259353637695L33.82763483886718,42.23259353637695L33.82763483886718,45.23259353637695ZM35.32763483886718,43.73259353637695Q35.32763483886718,43.806283836376956,35.32033483886718,43.87961953637695Q35.313134838867185,43.95295453637695,35.29873483886719,44.02522853637695Q35.284434838867185,44.097503536376955,35.263034838867185,44.16802053637695Q35.241634838867185,44.23853753637695,35.21343483886719,44.30661853637695Q35.18523483886719,44.37469953637695,35.150434838867184,44.439688536376956Q35.11573483886718,44.50467753637695,35.07483483886719,44.56594853637695Q35.033834838867186,44.62722053637695,34.98713483886719,44.684183536376956Q34.94033483886719,44.74114353637695,34.88823483886719,44.79325353637695Q34.83613483886719,44.84536353637695,34.779134838867186,44.892113536376954Q34.72223483886719,44.93885353637695,34.66093483886719,44.97979353637695Q34.59963483886719,45.02073353637695,34.53463483886719,45.05547353637695Q34.46973483886718,45.09021353637695,34.40163483886719,45.118413536376956Q34.33353483886719,45.146613536376954,34.263034838867185,45.16800353637695Q34.19253483886719,45.189393536376954,34.12023483886719,45.20377353637695Q34.04793483886719,45.21814353637696,33.97463483886719,45.22537353637696Q33.90123483886718,45.23259353637695,33.82763483886718,45.23259353637695Q33.75393483886719,45.23259353637695,33.68053483886719,45.22537353637696Q33.607234838867186,45.21814353637696,33.53493483886719,45.20377353637695Q33.46263483886719,45.189393536376954,33.392134838867186,45.16800353637695Q33.32163483886718,45.146613536376954,33.25353483886719,45.118413536376956Q33.185534838867184,45.09021353637695,33.12053483886719,45.05547353637695Q33.05553483886719,45.02073353637695,32.994234838867186,44.97979353637695Q32.93293483886718,44.93885353637695,32.876034838867184,44.892113536376954Q32.81903483886718,44.84536353637695,32.766934838867186,44.79325353637695Q32.71483483886719,44.74114353637695,32.668034838867186,44.684183536376956Q32.621334838867185,44.62722053637695,32.58033483886719,44.56594853637695Q32.53943483886719,44.50467753637695,32.504734838867186,44.439688536376956Q32.46993483886719,44.37469953637695,32.44173483886719,44.30661853637695Q32.413534838867186,44.23853753637695,32.392134838867186,44.16802053637695Q32.37083483886718,44.097503536376955,32.35643483886719,44.02522853637695Q32.34203483886719,43.95295453637695,32.33483483886719,43.87961953637695Q32.32763483886718,43.806283836376956,32.32763483886718,43.73259353637695Q32.32763483886718,43.65890323637695,32.33483483886719,43.585567536376956Q32.34203483886719,43.512232536376956,32.35643483886719,43.439958536376956Q32.37083483886718,43.36768353637695,32.392134838867186,43.297166536376956Q32.413534838867186,43.226649536376954,32.44173483886719,43.158568536376954Q32.46993483886719,43.090487536376955,32.504734838867186,43.02549853637695Q32.53943483886719,42.960509536376954,32.58033483886719,42.899238536376956Q32.621334838867185,42.83796653637695,32.668034838867186,42.78100353637695Q32.71483483886719,42.72404353637695,32.766934838867186,42.671933536376955Q32.81903483886718,42.619823536376956,32.876034838867184,42.57307353637695Q32.93293483886718,42.52633353637695,32.994234838867186,42.485393536376954Q33.05553483886719,42.444453536376955,33.12053483886719,42.409713536376955Q33.18543483886719,42.374973536376956,33.25353483886719,42.34677353637695Q33.32163483886718,42.31857353637695,33.392134838867186,42.297183536376956Q33.46263483886719,42.27579353637695,33.53493483886719,42.261413536376956Q33.607234838867186,42.24704353637695,33.68053483886719,42.23981353637695Q33.75393483886719,42.23259353637695,33.82763483886718,42.23259353637695Q33.90123483886718,42.23259353637695,33.97463483886719,42.23981353637695Q34.04793483886719,42.24704353637695,34.12023483886719,42.261413536376956Q34.19253483886719,42.27579353637695,34.263034838867185,42.297183536376956Q34.33353483886719,42.31857353637695,34.40163483886719,42.34677353637695Q34.46973483886718,42.374973536376956,34.53463483886719,42.409713536376955Q34.59963483886719,42.444453536376955,34.66093483886719,42.485393536376954Q34.72223483886719,42.52633353637695,34.779134838867186,42.57307353637695Q34.83613483886719,42.619823536376956,34.88823483886719,42.671933536376955Q34.94033483886719,42.72404353637695,34.98713483886719,42.78100353637695Q35.033834838867186,42.83796653637695,35.07483483886719,42.899238536376956Q35.11573483886718,42.960509536376954,35.150434838867184,43.02549853637695Q35.18523483886719,43.090487536376955,35.21343483886719,43.158568536376954Q35.241634838867185,43.226649536376954,35.263034838867185,43.297166536376956Q35.284434838867185,43.36768353637695,35.29873483886719,43.439958536376956Q35.313134838867185,43.512232536376956,35.32033483886718,43.585567536376956Q35.32763483886718,43.65890323637695,35.32763483886718,43.73259353637695ZM11.571334838867188,43.73259353637695Q11.571334838867188,43.806283836376956,11.564114838867187,43.87961953637695Q11.556884838867187,43.95295453637695,11.542514838867188,44.02522853637695Q11.528134838867187,44.097503536376955,11.506744838867188,44.16802053637695Q11.485354838867188,44.23853753637695,11.457154838867188,44.30661853637695Q11.428954838867188,44.37469953637695,11.394214838867187,44.439688536376956Q11.359474838867188,44.50467753637695,11.318534838867187,44.56594853637695Q11.277594838867188,44.62722053637695,11.230854838867188,44.684183536376956Q11.184104838867187,44.74114353637695,11.131994838867188,44.79325353637695Q11.079884838867187,44.84536353637695,11.022924838867187,44.892113536376954Q10.965961838867187,44.93885353637695,10.904689838867187,44.97979353637695Q10.843418838867187,45.02073353637695,10.778429838867188,45.05547353637695Q10.713440838867188,45.09021353637695,10.645359838867188,45.118413536376956Q10.577278838867187,45.146613536376954,10.506761838867188,45.16800353637695Q10.436244838867188,45.189393536376954,10.363969838867188,45.20377353637695Q10.291695838867188,45.21814353637696,10.218360838867188,45.22537353637696Q10.145025138867188,45.23259353637695,10.071334838867188,45.23259353637695Q9.997644538867187,45.23259353637695,9.924308838867187,45.22537353637696Q9.850973838867187,45.21814353637696,9.778699838867187,45.20377353637695Q9.706424838867187,45.189393536376954,9.635907838867187,45.16800353637695Q9.565390838867188,45.146613536376954,9.497309838867187,45.118413536376956Q9.429228838867187,45.09021353637695,9.364239838867187,45.05547353637695Q9.299250838867188,45.02073353637695,9.237979838867188,44.97979353637695Q9.176707838867188,44.93885353637695,9.119744838867188,44.892113536376954Q9.062784838867188,44.84536353637695,9.010674838867187,44.79325353637695Q8.958564838867188,44.74114353637695,8.911814838867187,44.684183536376956Q8.865074838867187,44.62722053637695,8.824134838867188,44.56594853637695Q8.783194838867187,44.50467753637695,8.748454838867188,44.439688536376956Q8.713714838867187,44.37469953637695,8.685514838867187,44.30661853637695Q8.657314838867187,44.23853753637695,8.635924838867187,44.16802053637695Q8.614534838867188,44.097503536376955,8.600154838867187,44.02522853637695Q8.585784838867188,43.95295453637695,8.578554838867188,43.87961953637695Q8.571334838867188,43.806283836376956,8.571334838867188,43.73259353637695Q8.571334838867188,43.65890323637695,8.578554838867188,43.585567536376956Q8.585784838867188,43.512232536376956,8.600154838867187,43.439958536376956Q8.614534838867188,43.36768353637695,8.635924838867187,43.297166536376956Q8.657314838867187,43.226649536376954,8.685514838867187,43.158568536376954Q8.713714838867187,43.090487536376955,8.748454838867188,43.02549853637695Q8.783194838867187,42.960509536376954,8.824134838867188,42.899238536376956Q8.865074838867187,42.83796653637695,8.911814838867187,42.78100353637695Q8.958564838867188,42.72404353637695,9.010674838867187,42.671933536376955Q9.062784838867188,42.619823536376956,9.119744838867188,42.57307353637695Q9.176707838867188,42.52633353637695,9.237979838867188,42.485393536376954Q9.299250838867188,42.444453536376955,9.364239838867187,42.409713536376955Q9.429228838867187,42.374973536376956,9.497309838867187,42.34677353637695Q9.565390838867188,42.31857353637695,9.635907838867187,42.297183536376956Q9.706424838867187,42.27579353637695,9.778699838867187,42.261413536376956Q9.850973838867187,42.24704353637695,9.924308838867187,42.23981353637695Q9.997644538867187,42.23259353637695,10.071334838867188,42.23259353637695Q10.145025138867188,42.23259353637695,10.218360838867188,42.23981353637695Q10.291695838867188,42.24704353637695,10.363969838867188,42.261413536376956Q10.436244838867188,42.27579353637695,10.506761838867188,42.297183536376956Q10.577278838867187,42.31857353637695,10.645359838867188,42.34677353637695Q10.713440838867188,42.374973536376956,10.778429838867188,42.409713536376955Q10.843418838867187,42.444453536376955,10.904689838867187,42.485393536376954Q10.965961838867187,42.52633353637695,11.022924838867187,42.57307353637695Q11.079884838867187,42.619823536376956,11.131994838867188,42.671933536376955Q11.184104838867187,42.72404353637695,11.230854838867188,42.78100353637695Q11.277594838867188,42.83796653637695,11.318534838867187,42.899238536376956Q11.359474838867188,42.960509536376954,11.394214838867187,43.02549853637695Q11.428954838867188,43.090487536376955,11.457154838867188,43.158568536376954Q11.485354838867188,43.226649536376954,11.506744838867188,43.297166536376956Q11.528134838867187,43.36768353637695,11.542514838867188,43.439958536376956Q11.556884838867187,43.512232536376956,11.564114838867187,43.585567536376956Q11.571334838867188,43.65890323637695,11.571334838867188,43.73259353637695Z" fill="#00C155" fill-opacity="1"/></g><g style="mix-blend-mode:passthrough"><rect x="0" y="0" width="43.89892578125" height="32.009559631347656" rx="1" fill="#00C155" fill-opacity="1"/></g><g style="mix-blend-mode:passthrough"><path d="M43.53226252140999,26.845069885253906L0.4628625214099884,26.845069885253906L0.4628625214099884,23.845069885253906L43.53226252140999,23.845069885253906L43.53226252140999,26.845069885253906ZM45.03226252140999,25.345069885253906Q45.03226252140999,25.418760185253905,45.025062521409986,25.492095885253907Q45.01786252140999,25.565430885253907,45.003462521409986,25.637704885253907Q44.98906252140999,25.709979885253905,44.96766252140999,25.780496885253907Q44.94636252140999,25.851013885253906,44.918062521409986,25.919094885253905Q44.88996252140999,25.987175885253905,44.85516252140999,26.052164885253905Q44.820462521409986,26.117153885253906,44.77946252140999,26.178424885253907Q44.73856252140999,26.239696885253906,44.69186252140999,26.296659885253906Q44.64506252140999,26.353619885253906,44.59296252140999,26.405729885253905Q44.54086252140999,26.457839885253907,44.48386252140999,26.504589885253907Q44.42696252140999,26.551329885253907,44.36566252140999,26.592269885253906Q44.30436252140999,26.633209885253905,44.23936252140999,26.667949885253908Q44.17436252140999,26.702689885253907,44.10636252140999,26.730889885253905Q44.03826252140999,26.759089885253907,43.96776252140999,26.780479885253907Q43.89716252140999,26.801869885253907,43.82496252140999,26.816249885253907Q43.75266252140999,26.830619885253906,43.67936252140999,26.837849885253906Q43.605962521409985,26.845069885253906,43.53226252140999,26.845069885253906Q43.45856252140999,26.845069885253906,43.38526252140999,26.837849885253906Q43.31196252140999,26.830619885253906,43.23966252140999,26.816249885253907Q43.16736252140999,26.801869885253907,43.09686252140999,26.780479885253907Q43.026362521409986,26.759089885253907,42.958262521409985,26.730889885253905Q42.89016252140999,26.702689885253907,42.825162521409986,26.667949885253908Q42.76026252140999,26.633209885253905,42.69896252140999,26.592269885253906Q42.637662521409986,26.551329885253907,42.58066252140999,26.504589885253907Q42.523762521409985,26.457839885253907,42.47166252140999,26.405729885253905Q42.419562521409986,26.353619885253906,42.37276252140999,26.296659885253906Q42.32606252140999,26.239696885253906,42.28506252140999,26.178424885253907Q42.24416252140999,26.117153885253906,42.20946252140999,26.052164885253905Q42.174662521409985,25.987175885253905,42.14646252140999,25.919094885253905Q42.11826252140999,25.851013885253906,42.09686252140999,25.780496885253907Q42.07546252140999,25.709979885253905,42.06106252140999,25.637704885253907Q42.04676252140999,25.565430885253907,42.03956252140999,25.492095885253907Q42.03226252140999,25.418760185253905,42.03226252140999,25.345069885253906Q42.03226252140999,25.271379585253907,42.03956252140999,25.198043885253906Q42.04676252140999,25.124708885253906,42.06106252140999,25.052434885253906Q42.07546252140999,24.980159885253908,42.09686252140999,24.909642885253906Q42.11826252140999,24.839125885253907,42.14646252140999,24.771044885253907Q42.174662521409985,24.702963885253908,42.20946252140999,24.637974885253907Q42.24416252140999,24.572985885253907,42.28506252140999,24.511714885253905Q42.32606252140999,24.450442885253906,42.37276252140999,24.393479885253907Q42.419562521409986,24.336519885253907,42.47166252140999,24.284409885253908Q42.523762521409985,24.232299885253905,42.58066252140999,24.185549885253906Q42.637662521409986,24.138809885253906,42.69896252140999,24.097869885253907Q42.76026252140999,24.056929885253908,42.825162521409986,24.022189885253905Q42.89016252140999,23.987449885253906,42.958262521409985,23.959249885253907Q43.026362521409986,23.931049885253906,43.09686252140999,23.909659885253905Q43.16736252140999,23.888269885253905,43.23966252140999,23.873889885253906Q43.31196252140999,23.859519885253906,43.38526252140999,23.852289885253906Q43.45856252140999,23.845069885253906,43.53226252140999,23.845069885253906Q43.605962521409985,23.845069885253906,43.67936252140999,23.852289885253906Q43.75266252140999,23.859519885253906,43.82496252140999,23.873889885253906Q43.89716252140999,23.888269885253905,43.96776252140999,23.909659885253905Q44.03826252140999,23.931049885253906,44.10636252140999,23.959249885253907Q44.17436252140999,23.987449885253906,44.23936252140999,24.022189885253905Q44.30436252140999,24.056929885253908,44.36566252140999,24.097869885253907Q44.42696252140999,24.138809885253906,44.48386252140999,24.185549885253906Q44.54086252140999,24.232299885253905,44.59296252140999,24.284409885253908Q44.64506252140999,24.336519885253907,44.69176252140999,24.393479885253907Q44.73856252140999,24.450442885253906,44.77946252140999,24.511714885253905Q44.820462521409986,24.572985885253907,44.85516252140999,24.637974885253907Q44.88996252140999,24.702963885253908,44.918062521409986,24.771044885253907Q44.94636252140999,24.839125885253907,44.96766252140999,24.909642885253906Q44.98906252140999,24.980159885253908,45.003462521409986,25.052434885253906Q45.01786252140999,25.124708885253906,45.025062521409986,25.198043885253906Q45.03226252140999,25.271379585253907,45.03226252140999,25.345069885253906ZM1.9628625214099884,25.345069885253906Q1.9628625214099884,25.418760185253905,1.9556425214099884,25.492095885253907Q1.9484125214099883,25.565430885253907,1.9340425214099883,25.637704885253907Q1.9196625214099885,25.709979885253905,1.8982725214099885,25.780496885253907Q1.8768825214099885,25.851013885253906,1.8486825214099885,25.919094885253905Q1.8204825214099885,25.987175885253905,1.7857425214099885,26.052164885253905Q1.7510025214099885,26.117153885253906,1.7100625214099885,26.178424885253907Q1.6691225214099885,26.239696885253906,1.6223825214099885,26.296659885253906Q1.5756325214099884,26.353619885253906,1.5235225214099883,26.405729885253905Q1.4714125214099885,26.457839885253907,1.4144525214099883,26.504589885253907Q1.3574895214099882,26.551329885253907,1.2962175214099885,26.592269885253906Q1.2349465214099884,26.633209885253905,1.1699575214099884,26.667949885253908Q1.1049685214099885,26.702689885253907,1.0368875214099884,26.730889885253905Q0.9688065214099884,26.759089885253907,0.8982895214099884,26.780479885253907Q0.8277725214099885,26.801869885253907,0.7554975214099884,26.816249885253907Q0.6832235214099884,26.830619885253906,0.6098885214099884,26.837849885253906Q0.5365528214099884,26.845069885253906,0.4628625214099884,26.845069885253906Q0.3891722214099884,26.845069885253906,0.3158365214099884,26.837849885253906Q0.2425015214099884,26.830619885253906,0.17022752140998842,26.816249885253907Q0.09795252140998839,26.801869885253907,0.027435521409988395,26.780479885253907Q-0.043081478590011546,26.759089885253907,-0.1111624785900116,26.730889885253905Q-0.17924347859001155,26.702689885253907,-0.24423247859001163,26.667949885253908Q-0.3092214785900116,26.633209885253905,-0.37049247859001155,26.592269885253906Q-0.43176447859001155,26.551329885253907,-0.48872747859001164,26.504589885253907Q-0.5456874785900117,26.457839885253907,-0.5977974785900115,26.405729885253905Q-0.6499074785900116,26.353619885253906,-0.6966574785900117,26.296659885253906Q-0.7433974785900117,26.239696885253906,-0.7843374785900117,26.178424885253907Q-0.8252774785900117,26.117153885253906,-0.8600174785900117,26.052164885253905Q-0.8947574785900116,25.987175885253905,-0.9229574785900116,25.919094885253905Q-0.9511574785900117,25.851013885253906,-0.9725474785900117,25.780496885253907Q-0.9939374785900117,25.709979885253905,-1.0083174785900115,25.637704885253907Q-1.0226874785900115,25.565430885253907,-1.0299174785900116,25.492095885253907Q-1.0371374785900116,25.418760185253905,-1.0371374785900116,25.345069885253906Q-1.0371374785900116,25.271379585253907,-1.0299174785900116,25.198043885253906Q-1.0226874785900115,25.124708885253906,-1.0083174785900115,25.052434885253906Q-0.9939374785900117,24.980159885253908,-0.9725474785900117,24.909642885253906Q-0.9511574785900117,24.839125885253907,-0.9229574785900116,24.771044885253907Q-0.8947574785900116,24.702963885253908,-0.8600174785900117,24.637974885253907Q-0.8252774785900117,24.572985885253907,-0.7843374785900117,24.511714885253905Q-0.7433974785900117,24.450442885253906,-0.6966574785900117,24.393479885253907Q-0.6499074785900116,24.336519885253907,-0.5977974785900115,24.284409885253908Q-0.5456874785900117,24.232299885253905,-0.48872747859001164,24.185549885253906Q-0.43176447859001155,24.138809885253906,-0.37049247859001155,24.097869885253907Q-0.3092214785900116,24.056929885253908,-0.24423247859001163,24.022189885253905Q-0.17924347859001155,23.987449885253906,-0.1111624785900116,23.959249885253907Q-0.043081478590011546,23.931049885253906,0.027435521409988395,23.909659885253905Q0.09795252140998839,23.888269885253905,0.17022752140998842,23.873889885253906Q0.2425015214099884,23.859519885253906,0.3158365214099884,23.852289885253906Q0.3891722214099884,23.845069885253906,0.4628625214099884,23.845069885253906Q0.5365528214099884,23.845069885253906,0.6098885214099884,23.852289885253906Q0.6832235214099884,23.859519885253906,0.7554975214099884,23.873889885253906Q0.8277725214099885,23.888269885253905,0.8982895214099884,23.909659885253905Q0.9688065214099884,23.931049885253906,1.0368875214099884,23.959249885253907Q1.1049685214099885,23.987449885253906,1.1699575214099884,24.022189885253905Q1.2349465214099884,24.056929885253908,1.2962175214099885,24.097869885253907Q1.3574895214099882,24.138809885253906,1.4144525214099883,24.185549885253906Q1.4714125214099885,24.232299885253905,1.5235225214099883,24.284409885253908Q1.5756325214099884,24.336519885253907,1.6223825214099885,24.393479885253907Q1.6691225214099885,24.450442885253906,1.7100625214099885,24.511714885253905Q1.7510025214099885,24.572985885253907,1.7857425214099885,24.637974885253907Q1.8204825214099885,24.702963885253908,1.8486825214099885,24.771044885253907Q1.8768825214099885,24.839125885253907,1.8982725214099885,24.909642885253906Q1.9196625214099885,24.980159885253908,1.9340425214099883,25.052434885253906Q1.9484125214099883,25.124708885253906,1.9556425214099884,25.198043885253906Q1.9628625214099884,25.271379585253907,1.9628625214099884,25.345069885253906Z" fill="#FFFFFF" fill-opacity="1"/></g><g style="mix-blend-mode:passthrough"><rect x="17.376659393310547" y="30.643415451049805" width="9.145609855651855" height="14.456439018249512" rx="0" fill="#00C155" fill-opacity="1"/></g></g></g></svg>