<svg xmlns="http://www.w3.org/2000/svg" xmlns:xlink="http://www.w3.org/1999/xlink" fill="none" version="1.1" width="50.18662643432617" height="49.77085494995117" viewBox="0 0 50.18662643432617 49.77085494995117"><g style="mix-blend-mode:passthrough"><g><g style="mix-blend-mode:passthrough"><path d="M4.40673828125,21.80503564453125Q4.40673828125,17.873835644531248,6.05848128125,14.28594564453125Q7.64477828125,10.84017564453125,10.52674828125,8.19231564453125Q13.39050828125,5.56118764453125,17.09513828125,4.12153764453125Q20.91653828125,2.63653564453125,25.09323828125,2.63653564453125Q29.26993828125,2.63653564453125,33.09123828125,4.1215366445312505Q36.79593828125,5.56118264453125,39.65963828125,8.19231564453125Q42.54163828125,10.84018564453125,44.12793828125,14.28594564453125Q45.77963828125,17.87393564453125,45.77963828125,21.80503564453125L41.77963828125,21.80503564453125Q41.77963828125,18.75043564453125,40.49443828125,15.95863564453125Q39.24403828125,13.24237564453125,36.95343828125,11.13784564453125Q34.644638281249996,9.01658564453125,31.64233828125,7.84991564453125Q28.52003828125,6.63653564453125,25.09323828125,6.63653564453125Q21.666438281250002,6.63653564453125,18.54403828125,7.84991564453125Q15.54181828125,9.01658564453125,13.233008281250001,11.13784564453125Q10.94240828125,13.24237564453125,9.69194828125,15.95863564453125Q8.40673828125,18.75043564453125,8.40673828125,21.80503564453125L4.40673828125,21.80503564453125ZM8.40673828125,21.80503564453125Q8.40673828125,21.90333564453125,8.39710828125,22.00113564453125Q8.38747828125,22.09883564453125,8.36830828125,22.19523564453125Q8.34913828125,22.29163564453125,8.32061828125,22.38563564453125Q8.29209828125,22.47963564453125,8.254498281250001,22.57043564453125Q8.21689828125,22.66123564453125,8.17057828125,22.74783564453125Q8.12426828125,22.83453564453125,8.06967828125,22.91623564453125Q8.01508828125,22.99793564453125,7.95275828125,23.07383564453125Q7.89042828125,23.14983564453125,7.82094828125,23.21923564453125Q7.75147828125,23.28873564453125,7.67552828125,23.35113564453125Q7.59957828125,23.41343564453125,7.51787828125,23.46803564453125Q7.43618828125,23.52263564453125,7.34953128125,23.56893564453125Q7.26287928125,23.61523564453125,7.17210528125,23.65283564453125Q7.08133028125,23.69043564453125,6.98730728125,23.71893564453125Q6.89328428125,23.74743564453125,6.79691928125,23.76663564453125Q6.70055328125,23.78583564453125,6.60277228125,23.79543564453125Q6.50499198125,23.80503564453125,6.40673828125,23.80503564453125Q6.30848458125,23.80503564453125,6.21070428125,23.79543564453125Q6.11292328125,23.78583564453125,6.01655728125,23.76663564453125Q5.92019228125,23.74743564453125,5.82616928125,23.71893564453125Q5.73214628125,23.69043564453125,5.64137128125,23.65283564453125Q5.55059728125,23.61523564453125,5.46394528125,23.56893564453125Q5.37728828125,23.52263564453125,5.29559828125,23.46803564453125Q5.21389828125,23.41343564453125,5.13794828125,23.35103564453125Q5.06199828125,23.28873564453125,4.99252828125,23.21923564453125Q4.92304828125,23.14983564453125,4.86071828125,23.07383564453125Q4.79838828125,22.99793564453125,4.74379828125,22.91623564453125Q4.68920828125,22.83453564453125,4.64289828125,22.74783564453125Q4.59657828125,22.66123564453125,4.55897828125,22.57043564453125Q4.52137828125,22.47963564453125,4.49285828125,22.38563564453125Q4.46433828125,22.29163564453125,4.44516828125,22.19523564453125Q4.42599828125,22.09883564453125,4.41636828125,22.00113564453125Q4.40673828125,21.90333564453125,4.40673828125,21.80503564453125Q4.40673828125,21.70683564453125,4.41636828125,21.60903564453125Q4.42599828125,21.51123564453125,4.44516828125,21.41483564453125Q4.46433828125,21.31853564453125,4.49285828125,21.22453564453125Q4.52137828125,21.13043564453125,4.55897828125,21.03973564453125Q4.59657828125,20.94893564453125,4.64289828125,20.86223564453125Q4.68920828125,20.77563564453125,4.74379828125,20.69393564453125Q4.79838828125,20.61223564453125,4.86071828125,20.53623564453125Q4.92304828125,20.46033564453125,4.99252828125,20.39083564453125Q5.06199828125,20.32133564453125,5.13794828125,20.259035644531252Q5.21389828125,20.196735644531252,5.29559828125,20.14213564453125Q5.37728828125,20.08753564453125,5.46394528125,20.04123564453125Q5.55059728125,19.99493564453125,5.64137128125,19.95733564453125Q5.73214628125,19.91973564453125,5.82616928125,19.89113564453125Q5.92019228125,19.862635644531252,6.01655728125,19.84353564453125Q6.11292328125,19.82433564453125,6.21070428125,19.81473564453125Q6.30848458125,19.80503564453125,6.40673828125,19.80503564453125Q6.50499198125,19.80503564453125,6.60277228125,19.81473564453125Q6.70055328125,19.82433564453125,6.79691928125,19.84353564453125Q6.89328428125,19.862635644531252,6.98730728125,19.89113564453125Q7.08133028125,19.91973564453125,7.17210528125,19.95733564453125Q7.26287928125,19.99493564453125,7.34953128125,20.04123564453125Q7.43618828125,20.08753564453125,7.51787828125,20.14213564453125Q7.59957828125,20.196735644531252,7.67552828125,20.259035644531252Q7.75147828125,20.32133564453125,7.82094828125,20.39083564453125Q7.89042828125,20.46033564453125,7.95275828125,20.53623564453125Q8.01508828125,20.61223564453125,8.06967828125,20.69393564453125Q8.12426828125,20.77563564453125,8.17057828125,20.86223564453125Q8.21689828125,20.94893564453125,8.254498281250001,21.03973564453125Q8.29209828125,21.13043564453125,8.32061828125,21.22453564453125Q8.34913828125,21.31853564453125,8.36830828125,21.41483564453125Q8.38747828125,21.51123564453125,8.39710828125,21.60903564453125Q8.40673828125,21.70683564453125,8.40673828125,21.80503564453125ZM45.77963828125,21.80503564453125Q45.77963828125,21.90333564453125,45.77003828125,22.00113564453125Q45.76043828125,22.09883564453125,45.74123828125,22.19523564453125Q45.72203828125,22.29163564453125,45.69353828125,22.38563564453125Q45.66503828125,22.47963564453125,45.62743828125,22.57043564453125Q45.58983828125,22.66123564453125,45.54353828125,22.74783564453125Q45.49723828125,22.83453564453125,45.44263828125,22.91623564453125Q45.38803828125,22.99793564453125,45.32573828125,23.07383564453125Q45.26333828125,23.14983564453125,45.19383828125,23.21923564453125Q45.12443828125,23.28873564453125,45.04843828125,23.35113564453125Q44.97253828125,23.41343564453125,44.89083828125,23.46803564453125Q44.80913828125,23.52263564453125,44.72243828125,23.56893564453125Q44.63583828125,23.61523564453125,44.54503828125,23.65283564453125Q44.45423828125,23.69043564453125,44.36023828125,23.71893564453125Q44.26623828125,23.74743564453125,44.16983828125,23.76663564453125Q44.07343828125,23.78583564453125,43.97573828125,23.79543564453125Q43.87793828125,23.80503564453125,43.77963828125,23.80503564453125Q43.68143828125,23.80503564453125,43.58363828125,23.79543564453125Q43.48583828125,23.78583564453125,43.38943828125,23.76663564453125Q43.29313828125,23.74743564453125,43.19913828125,23.71893564453125Q43.10503828125,23.69043564453125,43.01433828125,23.65283564453125Q42.92353828125,23.61523564453125,42.83683828125,23.56893564453125Q42.75023828125,23.52263564453125,42.66853828125,23.46803564453125Q42.58683828125,23.41343564453125,42.51083828125,23.35103564453125Q42.43493828125,23.28873564453125,42.36543828125,23.21923564453125Q42.29593828125,23.14983564453125,42.23363828125,23.07383564453125Q42.17133828125,22.99793564453125,42.11673828125,22.91623564453125Q42.06213828125,22.83453564453125,42.01583828125,22.74783564453125Q41.96953828125,22.66123564453125,41.93193828125,22.57043564453125Q41.89433828125,22.47963564453125,41.86573828125,22.38563564453125Q41.83723828125,22.29163564453125,41.81813828125,22.19523564453125Q41.79893828125,22.09883564453125,41.78933828125,22.00113564453125Q41.77963828125,21.90333564453125,41.77963828125,21.80503564453125Q41.77963828125,21.70683564453125,41.78933828125,21.60903564453125Q41.79893828125,21.51123564453125,41.81813828125,21.41483564453125Q41.83723828125,21.31853564453125,41.86573828125,21.22453564453125Q41.89433828125,21.13043564453125,41.93193828125,21.03973564453125Q41.96953828125,20.94893564453125,42.01583828125,20.86223564453125Q42.06213828125,20.77563564453125,42.11673828125,20.69393564453125Q42.17133828125,20.61223564453125,42.23363828125,20.53623564453125Q42.29593828125,20.46033564453125,42.36543828125,20.39083564453125Q42.43493828125,20.32133564453125,42.51083828125,20.259035644531252Q42.58683828125,20.196735644531252,42.66853828125,20.14213564453125Q42.75023828125,20.08753564453125,42.83683828125,20.04123564453125Q42.92353828125,19.99493564453125,43.01433828125,19.95733564453125Q43.10503828125,19.91973564453125,43.19913828125,19.89113564453125Q43.29313828125,19.862635644531252,43.38943828125,19.84353564453125Q43.48583828125,19.82433564453125,43.58363828125,19.81473564453125Q43.68143828125,19.80503564453125,43.77963828125,19.80503564453125Q43.87793828125,19.80503564453125,43.97573828125,19.81473564453125Q44.07343828125,19.82433564453125,44.16983828125,19.84353564453125Q44.26623828125,19.862635644531252,44.36023828125,19.89113564453125Q44.45423828125,19.91973564453125,44.54503828125,19.95733564453125Q44.63583828125,19.99493564453125,44.72243828125,20.04123564453125Q44.80913828125,20.08753564453125,44.89083828125,20.14213564453125Q44.97253828125,20.196735644531252,45.04843828125,20.259035644531252Q45.12443828125,20.32133564453125,45.19383828125,20.39083564453125Q45.26333828125,20.46033564453125,45.32573828125,20.53623564453125Q45.38803828125,20.61223564453125,45.44263828125,20.69393564453125Q45.49723828125,20.77563564453125,45.54353828125,20.86223564453125Q45.58983828125,20.94893564453125,45.62743828125,21.03973564453125Q45.66503828125,21.13043564453125,45.69353828125,21.22453564453125Q45.72203828125,21.31853564453125,45.74123828125,21.41483564453125Q45.76043828125,21.51123564453125,45.77003828125,21.60903564453125Q45.77963828125,21.70683564453125,45.77963828125,21.80503564453125Z" transform="matrix(0.9999999403953552,7.744638708118146e-8,-8.429369557916289e-8,0.9999999403953552,7.727020836512111e-7,-2.198196726865831e-7)" fill="#00C155" fill-opacity="1"/></g><g style="mix-blend-mode:passthrough"><path d="M22.996337890625,41.99300751953125L22.996337890625,4.71270751953125L26.996337890625,4.71270751953125L26.996337890625,41.99300751953125L22.996337890625,41.99300751953125Z" fill="#00C155" fill-opacity="1"/></g><g style="mix-blend-mode:passthrough"><path d="M33.123415234375,46.42695611328125Q33.138515234375,46.43896611328125,33.152615234375,46.45211611328125Q33.166715234375005,46.46526611328125,33.179815234375,46.47945611328125Q33.192915234375,46.49365611328125,33.204815234375005,46.50882611328125Q33.216815234375005,46.52398611328125,33.227515234375005,46.54002611328125Q33.238315234375,46.55606611328125,33.247715234375,46.57288611328125Q33.257215234374996,46.58970611328125,33.265315234374995,46.60719611328125Q33.273515234375,46.62469611328125,33.280315234374996,46.64277611328125Q33.287015234375005,46.66085611328125,33.292415234375,46.67939611328125Q33.297815234375,46.69793611328125,33.301715234374996,46.716836113281246Q33.305615234375,46.73574611328125,33.308015234375,46.75488611328125Q33.310515234375,46.77403611328125,33.311415234375005,46.79331611328125Q33.312415234374996,46.81259611328125,33.311915234375,46.83188611328125Q33.311315234375,46.85118611328125,33.309315234375,46.87037611328125Q33.307315234375,46.88957611328125,33.303815234375,46.90856611328125Q33.300315234375,46.92754611328125,33.295415234375,46.94620611328125Q33.290415234375004,46.964866113281246,33.284115234375,46.98308611328125Q33.277715234374995,47.00131611328125,33.270015234374995,47.01898611328125Q33.262215234375,47.03666611328125,33.253115234375,47.05369611328125Q33.244015234375,47.07072611328125,33.233715234375,47.08699611328125Q33.223315234375,47.103276113281254,33.211715234375,47.11870611328125Q33.200115234375005,47.13412611328125,33.187315234375,47.14861611328125Q33.174615234375,47.16310611328125,33.160715234375004,47.176566113281254Q33.146915234375,47.19002611328125,33.132115234375,47.20238611328125Q33.117215234374996,47.21473611328125,33.101515234375,47.22590611328125Q33.085815234375005,47.23708611328125,33.069215234375,47.24701611328125Q33.052615234375,47.25693611328125,33.035415234375,47.26555611328125Q33.018115234375,47.27418611328125,33.000215234375,47.28144611328125Q32.982315234375,47.288716113281254,32.964015234375,47.29457611328125Q32.945615234375,47.30043611328125,32.926815234375,47.30486611328125Q32.908015234375,47.30929611328125,32.888915234375,47.312266113281254Q32.869815234375,47.31523611328125,32.850615234375,47.31671611328125Q32.831415234375,47.31820611328125,32.812015234375,47.31820611328125L17.180135234375,47.31820611328125Q17.160835234375,47.31820611328125,17.141585234375,47.31672611328125Q17.122345234375,47.31523611328125,17.103265234375,47.312266113281254Q17.084195234375,47.30929611328125,17.065405234375,47.30486611328125Q17.046625234375,47.30043611328125,17.028235234375,47.29457611328125Q17.009845234375,47.288716113281254,16.991955234375,47.28144611328125Q16.974075234375,47.27418611328125,16.956805234375,47.26555611328125Q16.939535234375,47.25693611328125,16.922985234375,47.24701611328125Q16.906425234375,47.23708611328125,16.890685234375,47.22590611328125Q16.874945234375,47.21473611328125,16.860115234375,47.20238611328125Q16.845285234374998,47.19002611328125,16.831455234375,47.176566113281254Q16.817615234375,47.16310611328125,16.804865234375,47.14861611328125Q16.792105234375,47.13412611328125,16.780505234375,47.11870611328125Q16.768905234375,47.103276113281254,16.758525234375,47.08699611328125Q16.748155234374998,47.07072611328125,16.739065234375,47.05369611328125Q16.729975234375,47.03666611328125,16.722215234375,47.01898611328125Q16.714465234374998,47.00131611328125,16.708105234375,46.98308611328125Q16.701735234375,46.964866113281246,16.696795234375,46.94620611328125Q16.691855234375,46.92754611328125,16.688365234375,46.90856611328125Q16.684875234375,46.88957611328125,16.682865234375,46.87037611328125Q16.680855234375,46.85118611328125,16.680325234375,46.83188611328125Q16.679795234375,46.81259611328125,16.680755234375,46.79331611328125Q16.681715234374998,46.77403611328125,16.684165234375,46.75488611328125Q16.686605234375,46.73574611328125,16.690515234375,46.716836113281246Q16.694435234375,46.69793611328125,16.699795234375,46.67939611328125Q16.705145234375,46.66085611328125,16.711925234375002,46.64277611328125Q16.718695234375,46.62469611328125,16.726845234375,46.60720611328125Q16.734985234375,46.58970611328125,16.744455234375,46.57288611328125Q16.753925234375,46.55606611328125,16.764665234375,46.54002611328125Q16.775405234375,46.52398611328125,16.787355234375,46.50882611328125Q16.799295234375002,46.49365611328125,16.812375234375,46.47945611328125Q16.825445234375,46.46526611328125,16.839585234375,46.45211611328125Q16.853715234375,46.43896611328125,16.868815234375,46.42695611328125L24.684815234375,40.20797211328125Q24.751115234375,40.15516611328125,24.831215234375,40.12719811328125Q24.911315234375,40.09923011328125,24.996115234375,40.09923011328125Q25.080915234375,40.09923011328125,25.161015234375,40.12719811328125Q25.241015234375,40.15516611328125,25.307415234375,40.20797211328125L33.123415234375,46.42695611328125Z" fill="#00C155" fill-opacity="1"/><path d="M34.295115234375004,44.95425611328125Q34.823615234375,45.37475611328125,35.052815234375004,46.01004611328125Q35.339615234375,46.80544611328125,35.060815234375,47.60369611328125Q34.782015234374995,48.40194611328125,34.062315234375,48.84574611328125Q33.487415234375,49.200206113281254,32.812015234375,49.200206113281254L17.180135234375,49.200206113281254Q16.504785234375,49.200206113281254,15.929935234375,48.84574611328125Q15.210206234375,48.40194611328125,14.931378234375,47.60369611328125Q14.652549234375,46.80544611328125,14.939427234375,46.01004611328125Q15.168560234375,45.37475611328125,15.697035234375,44.95425611328125L23.512995234374998,38.73527611328125Q24.164075234374998,38.21723611328125,24.996115234375,38.21723611328125Q25.828115234374998,38.21723611328125,26.479215234374998,38.73527611328125L34.295215234375,44.95425611328125L34.295115234375004,44.95425611328125ZM31.951615234375,47.89964611328125L24.135625234375,41.68066611328125Q24.513415234375,41.98122611328125,24.996115234375,41.98122611328125Q25.478815234375,41.98122611328125,25.856615234375,41.68066611328125L18.040605234375,47.89964611328125Q18.347215234375,47.65567611328125,18.480155234375,47.28709611328125Q18.646595234375,46.82561611328125,18.484825234375002,46.36248611328125Q18.323055234375,45.89934611328125,17.905485234375,45.64186611328125Q17.571965234375,45.43621611328125,17.180135234375,45.43621611328125L32.812015234375,45.43621611328125Q32.420215234375,45.43621611328125,32.086715234375,45.64186611328125Q31.669115234375,45.89934611328125,31.507415234375,46.36248611328125Q31.345615234375,46.82562611328125,31.512015234375,47.28709611328125Q31.645015234375,47.65567611328125,31.951615234375,47.89964611328125L31.951615234375,47.89964611328125Z" fill="#00C155" fill-opacity="1"/></g><g style="mix-blend-mode:passthrough"><path d="M0,28.73920423828125C0,29.01534423828125,0.223858,29.23920423828125,0.5,29.23920423828125L12.3136,29.23920423828125C12.5897,29.23920423828125,12.8136,29.01534423828125,12.8136,28.73920423828125L12.8136,23.85284423828125C12.8136,23.57670223828125,12.5897,23.35284423828125,12.3136,23.35284423828125L0.5,23.35284423828125C0.223858,23.35284423828125,0,23.57670223828125,0,23.85284423828125L0,28.73920423828125Z" fill="#00C155" fill-opacity="1"/><path d="M0.5,27.35720423828125L12.3136,27.35720423828125Q11.7411,27.35720423828125,11.3364,27.76198423828125Q10.9316,28.16675423828125,10.9316,28.73920423828125L10.9316,23.85284423828125Q10.9316,24.42528423828125,11.3364,24.83006423828125Q11.7411,25.234834238281252,12.3136,25.234834238281252L0.5,25.234834238281252Q1.07244,25.234834238281252,1.47722,24.83006423828125Q1.88199,24.42528423828125,1.88199,23.85284423828125L1.88199,28.73920423828125Q1.88199,28.16676423828125,1.47722,27.76198423828125Q1.07244,27.35720423828125,0.5,27.35720423828125L0.5,27.35720423828125ZM0.5,31.121194238281248Q-0.486654,31.121194238281248,-1.18432,30.42352423828125Q-1.88199,29.72585423828125,-1.88199,28.73920423828125L-1.88199,23.85284423828125Q-1.88199,22.86618923828125,-1.18432,22.16852423828125Q-0.486654,21.470854238281248,0.5,21.470854238281248L12.3136,21.470854238281248Q13.3002,21.470854238281248,13.9979,22.16852423828125Q14.6956,22.86619023828125,14.6956,23.85284423828125L14.6956,28.73920423828125Q14.6956,29.72585423828125,13.9979,30.42352423828125Q13.3002,31.121194238281248,12.3136,31.121194238281248L0.5,31.121194238281248L0.5,31.121194238281248Z" fill="#00C155" fill-opacity="1"/></g><g style="mix-blend-mode:passthrough"><path d="M37.373046875,28.73920423828125C37.373046875,29.01534423828125,37.596904875,29.23920423828125,37.873046875,29.23920423828125L49.686646875,29.23920423828125C49.962746875,29.23920423828125,50.186646875,29.01534423828125,50.186646875,28.73920423828125L50.186646875,23.85284423828125C50.186646875,23.57670223828125,49.962746875,23.35284423828125,49.686646875,23.35284423828125L37.873046875,23.35284423828125C37.596904875,23.35284423828125,37.373046875,23.57670223828125,37.373046875,23.85284423828125L37.373046875,28.73920423828125Z" fill="#00C155" fill-opacity="1"/><path d="M37.873046875,27.35720423828125L49.686646875,27.35720423828125Q49.114146875,27.35720423828125,48.709446875,27.76198423828125Q48.304646875,28.16675423828125,48.304646875,28.73920423828125L48.304646875,23.85284423828125Q48.304646875,24.42528423828125,48.709446875,24.83006423828125Q49.114146875,25.234834238281252,49.686646875,25.234834238281252L37.873046875,25.234834238281252Q38.445486875,25.234834238281252,38.850266875,24.83006423828125Q39.255036875,24.42528423828125,39.255036875,23.85284423828125L39.255036875,28.73920423828125Q39.255036875,28.16676423828125,38.850266875,27.76198423828125Q38.445486875,27.35720423828125,37.873046875,27.35720423828125L37.873046875,27.35720423828125ZM37.873046875,31.121194238281248Q36.886392875,31.121194238281248,36.188726875,30.42352423828125Q35.491056875,29.72585423828125,35.491056875,28.73920423828125L35.491056875,23.85284423828125Q35.491056875,22.86618923828125,36.188726875,22.16852423828125Q36.886392875,21.470854238281248,37.873046875,21.470854238281248L49.686646875,21.470854238281248Q50.673246875000004,21.470854238281248,51.370946875,22.16852423828125Q52.068646875,22.86619023828125,52.068646875,23.85284423828125L52.068646875,28.73920423828125Q52.068646875,29.72585423828125,51.370946875,30.42352423828125Q50.673246875000004,31.121194238281248,49.686646875,31.121194238281248L37.873046875,31.121194238281248L37.873046875,31.121194238281248Z" fill="#00C155" fill-opacity="1"/></g><g style="mix-blend-mode:passthrough"><path d="M30.0107421875,8.714226699218749C30.0107421875,8.99037669921875,30.2346001875,9.214226699218749,30.5107421875,9.214226699218749L39.539632187500004,9.214226699218749C39.8157721875,9.214226699218749,40.0396421875,8.99037669921875,40.0396421875,8.714226699218749L40.0396421875,5.10711669921875C40.0396421875,4.83097469921875,39.8157721875,4.60711669921875,39.539632187500004,4.60711669921875L30.5107421875,4.60711669921875C30.2346001875,4.60711669921875,30.0107421875,4.83097469921875,30.0107421875,5.10711669921875L30.0107421875,8.714226699218749Z" transform="matrix(-1,0,0,-1,60.021484375,9.2142333984375)" fill="#00C155" fill-opacity="1"/><path d="M30.5107421875,7.33223669921875L39.539632187500004,7.33223669921875Q38.967192187500004,7.33223669921875,38.5624121875,7.73700669921875Q38.1576321875,8.14178669921875,38.1576321875,8.714226699218749L38.1576321875,5.10711669921875Q38.1576321875,5.67955669921875,38.5624121875,6.08433669921875Q38.967192187500004,6.48910669921875,39.539632187500004,6.48910669921875L30.5107421875,6.48910669921875Q31.0831821875,6.48910669921875,31.4879621875,6.08433669921875Q31.892732187500002,5.67955669921875,31.892732187500002,5.10711669921875L31.892732187500002,8.714226699218749Q31.892732187500002,8.14178669921875,31.4879621875,7.73701669921875Q31.0831821875,7.33223669921875,30.5107421875,7.33223669921875L30.5107421875,7.33223669921875ZM30.5107421875,11.09622669921875Q29.5240881875,11.09622669921875,28.8264221875,10.39855669921875Q28.128752187499998,9.70088669921875,28.128752187499998,8.714226699218749L28.128752187499998,5.10711669921875Q28.128752187499998,4.12046269921875,28.8264221875,3.42279669921875Q29.5240871875,2.72512669921875,30.5107421875,2.72512669921875L39.539632187500004,2.72512669921875Q40.5262421875,2.72512669921875,41.2239421875,3.42279669921875Q41.9216421875,4.12046269921875,41.9216421875,5.10711669921875L41.9216421875,8.714226699218749Q41.9216421875,9.70088669921875,41.2239421875,10.39855669921875Q40.5262421875,11.09622669921875,39.539632187500004,11.09622669921875L30.5107421875,11.09622669921875L30.5107421875,11.09622669921875Z" transform="matrix(-1,0,0,-1,60.021484375,9.2142333984375)" fill="#00C155" fill-opacity="1"/></g></g></g></svg>